<?xml version="1.0" standalone="no"?>
<!DOCTYPE svg PUBLIC "-//W3C//DTD SVG 20010904//EN"
 "http://www.w3.org/TR/2001/REC-SVG-20010904/DTD/svg10.dtd">
<svg version="1.0" xmlns="http://www.w3.org/2000/svg"
 width="187.000000pt" height="154.000000pt" viewBox="0 0 187.000000 154.000000"
 preserveAspectRatio="xMidYMid meet">

<g transform="translate(0.000000,154.000000) scale(0.100000,-0.100000)"
fill="#651199" stroke="none">
<path d="M1424 1332 c-16 -16 -43 -45 -58 -64 -15 -20 -39 -44 -54 -54 l-27
-17 18 26 c9 14 17 28 17 31 0 7 -23 1 -47 -12 -23 -13 -32 -52 -12 -52 6 0 4
-7 -5 -15 -8 -8 -22 -12 -30 -9 -11 4 -19 -2 -26 -20 -5 -14 -14 -26 -20 -26
-5 0 -10 -7 -10 -16 0 -8 5 -12 10 -9 6 3 10 -1 10 -9 0 -8 -5 -18 -10 -21 -6
-4 -7 -11 -4 -17 4 -6 -5 -8 -22 -6 -25 3 -29 0 -26 -20 1 -19 -2 -22 -16 -18
-13 4 -27 -3 -45 -24 -15 -16 -27 -34 -27 -40 0 -5 -9 -14 -21 -20 -30 -17
-39 -50 -20 -79 12 -18 12 -26 3 -29 -6 -2 -12 -9 -12 -15 0 -7 -9 -18 -20
-25 -11 -7 -20 -21 -20 -33 0 -16 -4 -19 -20 -14 -15 5 -20 2 -20 -10 0 -12
-5 -15 -17 -10 -10 4 -26 10 -36 13 -12 3 -17 11 -14 23 4 15 2 17 -13 9 -15
-8 -20 -6 -25 10 -3 11 -11 20 -16 20 -5 0 -9 8 -9 18 0 20 -29 52 -48 52 -6
0 -9 7 -5 15 4 11 -4 19 -24 27 -16 6 -39 27 -52 46 -12 19 -18 31 -12 27 6
-3 11 -2 11 2 0 8 -5 12 -63 42 -31 16 -46 9 -27 -14 7 -9 10 -18 7 -21 -3 -3
-10 4 -17 15 -15 28 -33 16 -25 -16 4 -19 0 -32 -16 -49 -11 -12 -18 -27 -14
-33 3 -6 1 -11 -4 -11 -6 0 -11 -13 -11 -29 0 -18 -10 -41 -25 -57 -30 -33
-31 -37 -5 -29 14 4 28 -2 46 -20 23 -23 26 -33 21 -67 -4 -27 -1 -45 8 -54
11 -12 16 -9 29 18 9 17 16 37 16 45 0 8 11 26 25 41 19 21 34 26 72 28 27 0
61 -6 78 -14 17 -9 33 -15 36 -15 3 1 18 -46 33 -105 37 -150 67 -256 72 -261
2 -3 11 5 20 17 19 28 34 28 90 -2 43 -23 91 -25 78 -4 -4 6 -26 19 -49 29
-23 10 -59 37 -79 59 -34 38 -36 44 -36 107 0 60 4 73 32 115 38 55 91 78 183
78 59 0 85 -9 123 -43 16 -15 22 -17 22 -6 1 21 46 69 67 70 16 0 16 1 -2 9
-11 5 -32 9 -46 9 -42 1 -44 32 -9 131 22 62 35 70 115 70 82 0 135 20 135 51
0 10 18 37 40 59 45 45 50 60 20 60 -17 0 -19 4 -11 18 5 9 9 29 9 43 0 21 -4
25 -19 22 -11 -3 -19 -9 -19 -14 0 -5 -9 -9 -21 -9 -16 0 -19 4 -14 21 6 18 5
19 -14 10 -11 -6 -27 -21 -35 -33 -9 -12 -18 -19 -21 -16 -9 9 11 51 37 78 33
33 40 56 19 56 -9 1 -23 4 -31 7 -9 4 -27 -5 -46 -21z m52 -20 c-18 -16 -18
-16 -6 6 6 13 14 21 18 18 3 -4 -2 -14 -12 -24z m-57 -124 c-18 -35 -83 -117
-92 -118 -5 0 5 17 23 38 17 20 40 52 52 70 23 37 35 43 17 10z"/>
<path d="M450 1062 c0 -12 19 -26 26 -19 2 2 -2 10 -11 17 -9 8 -15 8 -15 2z"/>
<path d="M229 933 c-17 -54 -34 -104 -37 -110 -2 -7 2 -13 10 -13 8 0 27 37
47 98 19 53 36 103 39 110 2 6 -3 12 -11 12 -11 0 -26 -31 -48 -97z"/>
<path d="M472 1018 c-7 -7 -12 -18 -12 -25 0 -8 -7 -16 -15 -19 -9 -4 -13 -13
-10 -24 3 -9 -2 -36 -10 -60 -21 -58 -19 -80 4 -80 24 0 38 19 22 29 -13 9 11
89 32 106 13 11 20 85 8 85 -4 0 -12 -5 -19 -12z"/>
<path d="M310 953 c-55 -49 -52 -143 4 -143 23 0 66 33 66 50 0 15 -19 12 -36
-5 -21 -21 -44 -19 -44 4 0 17 8 20 48 23 45 3 47 4 50 36 6 64 -37 81 -88 35z
m58 -26 c3 -13 -4 -17 -29 -17 -32 0 -32 0 -14 20 21 23 38 22 43 -3z"/>
<path d="M1349 973 c-23 -4 -30 -14 -53 -78 -30 -85 -30 -85 -12 -85 7 0 23
27 35 60 20 54 49 88 64 73 3 -3 -5 -34 -18 -70 -21 -55 -22 -64 -9 -61 9 2
25 26 36 53 20 53 53 94 65 82 6 -6 -1 -30 -35 -124 -2 -7 3 -13 11 -13 15 0
57 104 57 142 0 24 -23 32 -50 18 -16 -9 -25 -9 -33 -1 -6 6 -16 10 -21 10 -6
-1 -23 -4 -37 -6z"/>
<path d="M1552 964 c-44 -31 -68 -114 -40 -142 7 -7 22 -12 35 -12 23 0 63 32
63 50 0 16 -27 12 -34 -5 -8 -23 -46 -19 -46 4 0 17 8 20 48 23 46 3 47 4 50
38 5 53 -32 75 -76 44z m46 -37 c3 -13 -4 -17 -29 -17 -32 0 -32 0 -14 20 21
23 38 22 43 -3z"/>
<path d="M1046 725 c-22 -8 -56 -30 -75 -50 -34 -34 -36 -39 -36 -104 0 -83
17 -107 109 -152 68 -33 79 -45 65 -71 -15 -27 -78 -24 -123 7 -20 14 -43 25
-51 25 -17 0 -30 -59 -21 -94 15 -62 199 -97 262 -50 51 37 68 70 68 127 0 73
-25 105 -119 150 -62 30 -75 41 -75 60 0 27 28 57 53 57 23 0 47 -28 47 -56 0
-20 5 -24 28 -24 64 0 99 67 67 130 -29 55 -115 75 -199 45z"/>
<path d="M1618 727 c-8 -6 -43 -49 -77 -94 -33 -45 -65 -85 -71 -88 -6 -4 -9
23 -7 75 2 96 -10 113 -78 108 l-40 -3 -17 -205 c-9 -113 -17 -217 -17 -233
-1 -41 31 -67 83 -67 l44 0 7 99 c5 72 11 101 21 105 9 3 17 -2 20 -12 46
-149 91 -209 148 -198 17 4 41 17 53 29 l22 22 -73 114 -74 115 49 39 c26 22
60 57 75 78 26 38 26 38 8 70 -27 45 -56 63 -76 46z"/>
<path d="M132 718 c-6 -7 -12 -29 -14 -48 l-3 -35 63 -3 62 -3 -5 -37 c-16
-124 -25 -323 -15 -341 12 -23 44 -34 86 -29 l29 3 12 165 c6 91 11 182 12
203 l1 37 54 0 c61 0 74 10 83 64 l6 36 -180 0 c-132 0 -183 -3 -191 -12z"/>
<path d="M593 673 c-53 -121 -143 -375 -143 -404 0 -5 9 -18 20 -29 23 -23 98
-28 105 -7 2 6 9 31 15 55 l11 43 62 -3 c61 -3 61 -3 68 -38 10 -49 41 -70
100 -70 41 0 49 3 49 19 0 44 -109 453 -125 471 -14 16 -31 20 -77 20 l-59 0
-26 -57z m101 -152 l13 -81 -39 0 c-21 0 -38 3 -38 6 0 15 44 164 47 160 2 -2
10 -40 17 -85z"/>
<path d="M1280 680 c0 -5 5 -10 11 -10 5 0 7 5 4 10 -3 6 -8 10 -11 10 -2 0
-4 -4 -4 -10z"/>
<path d="M1086 591 c-10 -16 5 -41 25 -41 22 0 23 4 9 31 -11 20 -25 25 -34
10z"/>
<path d="M896 217 c-30 -22 2 -65 39 -51 20 8 19 50 -1 58 -20 8 -17 8 -38 -7z"/>
<path d="M960 196 c0 -10 4 -15 9 -12 5 4 12 0 14 -6 4 -8 6 -9 6 -2 1 6 -6
17 -14 24 -12 10 -15 9 -15 -4z"/>
</g>
</svg>
